<svg width="145" height="35" viewBox="0 0 145 35" fill="none" xmlns="http://www.w3.org/2000/svg">
<g clip-path="url(#clip0_8025_81422)">
<path d="M35 17.5C35 7.83502 27.165 0 17.5 0C7.83502 0 0 7.83502 0 17.5C0 27.165 7.83502 35 17.5 35C27.165 35 35 27.165 35 17.5Z" fill="url(#paint0_linear_8025_81422)"></path>
<path d="M27.3212 15.5909L25.2303 13.8636V10.5C25.2289 10.4128 25.2024 10.3279 25.154 10.2554C25.1057 10.1829 25.0375 10.1258 24.9576 10.0909L20.4576 8.04545H20.2758L20.003 8.13636L17.503 9.77273L15.003 8.09091L14.7303 8H14.5485L10.0485 10.0909C9.9686 10.1258 9.90041 10.1829 9.85205 10.2554C9.8037 10.3279 9.77722 10.4128 9.77578 10.5V13.8636L7.68487 15.5909C7.62179 15.6265 7.57078 15.6802 7.53839 15.7449C7.506 15.8097 7.49369 15.8827 7.50305 15.9545V20.0455C7.49369 20.1173 7.506 20.1903 7.53839 20.2551C7.57078 20.3198 7.62179 20.3735 7.68487 20.4091L9.77578 22.1364V25.5C9.77722 25.5872 9.8037 25.6721 9.85205 25.7446C9.90041 25.8171 9.9686 25.8742 10.0485 25.9091L14.5485 27.9545H14.7303L15.003 27.8636L17.503 26.2273L20.003 27.9091L20.2758 28H20.4576L24.9576 25.9545C25.0375 25.9197 25.1057 25.8626 25.154 25.7901C25.2024 25.7175 25.2289 25.6326 25.2303 25.5455V22.1364L27.3212 20.4091C27.377 20.3769 27.4232 20.3305 27.4552 20.2746C27.4871 20.2187 27.5036 20.1553 27.503 20.0909V15.9091C27.5036 15.8447 27.4871 15.7813 27.4552 15.7254C27.4232 15.6695 27.377 15.6231 27.3212 15.5909ZM25.003 18.6818H25.6849V19.4091L24.094 20.6818L23.9121 20.8182L23.7303 20.7273C23.6511 20.6817 23.563 20.6538 23.472 20.6453C23.381 20.6369 23.2892 20.6482 23.203 20.6784C23.1167 20.7085 23.038 20.757 22.9721 20.8203C22.9062 20.8836 22.8548 20.9604 22.8212 21.0455C22.7397 21.2027 22.7225 21.3856 22.7734 21.5552C22.8244 21.7249 22.9393 21.8681 23.094 21.9545L23.4121 22.0909V24.5455L20.4121 25.9545L18.503 24.6818L18.1849 24.4545V18.6818H18.8667C19.0475 18.6818 19.2209 18.61 19.3488 18.4821C19.4767 18.3543 19.5485 18.1808 19.5485 18C19.5485 17.8192 19.4767 17.6457 19.3488 17.5179C19.2209 17.39 19.0475 17.3182 18.8667 17.3182H18.1849V11.5L18.503 11.2727L20.4121 10L23.4121 11.4091V13.8636L23.094 14C22.9393 14.0864 22.8244 14.2296 22.7734 14.3993C22.7225 14.569 22.7397 14.7518 22.8212 14.9091C22.867 15.0289 22.948 15.132 23.0534 15.205C23.1589 15.278 23.2839 15.3175 23.4121 15.3182L23.7303 15.2273L23.9121 15.1364L24.094 15.2727L25.6849 16.5909V17.3182H25.003C24.8222 17.3182 24.6488 17.39 24.5209 17.5179C24.3931 17.6457 24.3212 17.8192 24.3212 18C24.3212 18.1808 24.3931 18.3543 24.5209 18.4821C24.6488 18.61 24.8222 18.6818 25.003 18.6818ZM16.1394 18.6818H16.8212V24.5L16.503 24.7273L14.594 26L11.594 24.5909V22.1364L11.9121 22C12.0668 21.9136 12.1817 21.7704 12.2327 21.6007C12.2836 21.431 12.2664 21.2482 12.1849 21.0909C12.1513 21.0059 12.0999 20.9291 12.034 20.8658C11.9681 20.8024 11.8894 20.754 11.8031 20.7238C11.7169 20.6936 11.6251 20.6824 11.5341 20.6908C11.4431 20.6992 11.355 20.7272 11.2758 20.7727L11.094 20.8636L10.9121 20.7273L9.32123 19.4091V18.6818H10.003C10.1839 18.6818 10.3573 18.61 10.4852 18.4821C10.613 18.3543 10.6849 18.1808 10.6849 18C10.6849 17.8192 10.613 17.6457 10.4852 17.5179C10.3573 17.39 10.1839 17.3182 10.003 17.3182H9.32123V16.5909L10.9121 15.3182L11.094 15.1818L11.2758 15.2727L11.594 15.3636C11.7222 15.3629 11.8472 15.3235 11.9527 15.2505C12.0581 15.1775 12.1391 15.0743 12.1849 14.9545C12.2664 14.7973 12.2836 14.6144 12.2327 14.4448C12.1817 14.2751 12.0668 14.1319 11.9121 14.0455L11.594 13.9091V11.4091L14.594 10L16.503 11.2727L16.8212 11.5V17.3182H16.1394C15.9586 17.3182 15.7852 17.39 15.6573 17.5179C15.5294 17.6457 15.4576 17.8192 15.4576 18C15.4576 18.1808 15.5294 18.3543 15.6573 18.4821C15.7852 18.61 15.9586 18.6818 16.1394 18.6818Z" fill="white"></path>
<path d="M12.9121 11.5909C12.8016 11.7341 12.7416 11.91 12.7416 12.0909C12.7416 12.2719 12.8016 12.4477 12.9121 12.5909L14.094 13.7273V15L12.2758 16.8182V19.1818L14.094 21V22.2727L12.9121 23.4091C12.8016 23.5523 12.7416 23.7282 12.7416 23.9091C12.7416 24.09 12.8016 24.2659 12.9121 24.4091C12.979 24.4714 13.0578 24.5195 13.1437 24.5508C13.2296 24.582 13.3209 24.5957 13.4121 24.5909C13.5034 24.5957 13.5947 24.582 13.6806 24.5508C13.7665 24.5195 13.8452 24.4714 13.9121 24.4091L15.4576 22.8182V20.4545L13.6394 18.6364V17.3636L15.4576 15.5455V13.1818L13.9121 11.5909C13.7689 11.4803 13.5931 11.4204 13.4121 11.4204C13.2312 11.4204 13.0554 11.4803 12.9121 11.5909Z" fill="white"></path>
<path d="M20.9121 13.7273L22.094 12.5909C22.2045 12.4477 22.2645 12.2719 22.2645 12.0909C22.2645 11.91 22.2045 11.7341 22.094 11.5909C21.9507 11.4803 21.7749 11.4204 21.594 11.4204C21.413 11.4204 21.2372 11.4803 21.094 11.5909L19.5485 13.1818V15.5455L21.3667 17.3636V18.6364L19.5485 20.4545V22.8182L21.094 24.4091C21.2336 24.5276 21.4108 24.5927 21.594 24.5927C21.7771 24.5927 21.9543 24.5276 22.094 24.4091C22.2045 24.2659 22.2645 24.09 22.2645 23.9091C22.2645 23.7282 22.2045 23.5523 22.094 23.4091L20.9121 22.2727V21L22.7303 19.1818V16.8182L20.9121 15V13.7273Z" fill="white"></path>
</g>
<path d="M54.614 18.716C53.618 18.716 52.694 18.554 51.842 18.23C51.002 17.906 50.27 17.45 49.646 16.862C49.034 16.274 48.554 15.584 48.206 14.792C47.87 14 47.702 13.136 47.702 12.2C47.702 11.264 47.87 10.4 48.206 9.608C48.554 8.816 49.04 8.126 49.664 7.538C50.288 6.95 51.02 6.494 51.86 6.17C52.7 5.846 53.612 5.684 54.596 5.684C55.592 5.684 56.504 5.846 57.332 6.17C58.172 6.494 58.898 6.95 59.51 7.538C60.134 8.126 60.62 8.816 60.968 9.608C61.316 10.388 61.49 11.252 61.49 12.2C61.49 13.136 61.316 14.006 60.968 14.81C60.62 15.602 60.134 16.292 59.51 16.88C58.898 17.456 58.172 17.906 57.332 18.23C56.504 18.554 55.598 18.716 54.614 18.716ZM54.596 16.232C55.16 16.232 55.676 16.136 56.144 15.944C56.624 15.752 57.044 15.476 57.404 15.116C57.764 14.756 58.04 14.33 58.232 13.838C58.436 13.346 58.538 12.8 58.538 12.2C58.538 11.6 58.436 11.054 58.232 10.562C58.04 10.07 57.764 9.644 57.404 9.284C57.056 8.924 56.642 8.648 56.162 8.456C55.682 8.264 55.16 8.168 54.596 8.168C54.032 8.168 53.51 8.264 53.03 8.456C52.562 8.648 52.148 8.924 51.788 9.284C51.428 9.644 51.146 10.07 50.942 10.562C50.75 11.054 50.654 11.6 50.654 12.2C50.654 12.788 50.75 13.334 50.942 13.838C51.146 14.33 51.422 14.756 51.77 15.116C52.13 15.476 52.55 15.752 53.03 15.944C53.51 16.136 54.032 16.232 54.596 16.232ZM67.5314 18.644C66.3914 18.644 65.5034 18.356 64.8674 17.78C64.2314 17.192 63.9134 16.322 63.9134 15.17V6.674H66.7214V15.134C66.7214 15.542 66.8294 15.86 67.0454 16.088C67.2614 16.304 67.5554 16.412 67.9274 16.412C68.3714 16.412 68.7494 16.292 69.0614 16.052L69.8174 18.032C69.5294 18.236 69.1814 18.392 68.7734 18.5C68.3774 18.596 67.9634 18.644 67.5314 18.644ZM62.4194 11.192V9.032H69.1334V11.192H62.4194ZM77.3337 18.5V16.61L77.1537 16.196V12.812C77.1537 12.212 76.9677 11.744 76.5957 11.408C76.2357 11.072 75.6777 10.904 74.9217 10.904C74.4057 10.904 73.8957 10.988 73.3917 11.156C72.8997 11.312 72.4797 11.528 72.1317 11.804L71.1237 9.842C71.6517 9.47 72.2877 9.182 73.0317 8.978C73.7757 8.774 74.5317 8.672 75.2997 8.672C76.7757 8.672 77.9217 9.02 78.7377 9.716C79.5537 10.412 79.9617 11.498 79.9617 12.974V18.5H77.3337ZM74.3817 18.644C73.6257 18.644 72.9777 18.518 72.4377 18.266C71.8977 18.002 71.4837 17.648 71.1957 17.204C70.9077 16.76 70.7637 16.262 70.7637 15.71C70.7637 15.134 70.9017 14.63 71.1777 14.198C71.4657 13.766 71.9157 13.43 72.5277 13.19C73.1397 12.938 73.9377 12.812 74.9217 12.812H77.4957V14.45H75.2277C74.5677 14.45 74.1117 14.558 73.8597 14.774C73.6197 14.99 73.4997 15.26 73.4997 15.584C73.4997 15.944 73.6377 16.232 73.9137 16.448C74.2017 16.652 74.5917 16.754 75.0837 16.754C75.5517 16.754 75.9717 16.646 76.3437 16.43C76.7157 16.202 76.9857 15.872 77.1537 15.44L77.5857 16.736C77.3817 17.36 77.0097 17.834 76.4697 18.158C75.9297 18.482 75.2337 18.644 74.3817 18.644ZM88.389 8.672C89.157 8.672 89.841 8.828 90.441 9.14C91.053 9.44 91.533 9.908 91.881 10.544C92.229 11.168 92.403 11.972 92.403 12.956V18.5H89.595V13.388C89.595 12.608 89.421 12.032 89.073 11.66C88.737 11.288 88.257 11.102 87.633 11.102C87.189 11.102 86.787 11.198 86.427 11.39C86.079 11.57 85.803 11.852 85.599 12.236C85.407 12.62 85.311 13.112 85.311 13.712V18.5H82.503V8.816H85.185V11.498L84.681 10.688C85.029 10.04 85.527 9.542 86.175 9.194C86.823 8.846 87.561 8.672 88.389 8.672ZM99.5727 22.136C98.6607 22.136 97.7787 22.022 96.9267 21.794C96.0867 21.578 95.3847 21.248 94.8207 20.804L95.9367 18.788C96.3447 19.124 96.8607 19.388 97.4847 19.58C98.1207 19.784 98.7447 19.886 99.3567 19.886C100.353 19.886 101.073 19.664 101.517 19.22C101.973 18.776 102.201 18.116 102.201 17.24V15.782L102.381 13.352L102.345 10.904V8.816H105.009V16.88C105.009 18.68 104.541 20.006 103.605 20.858C102.669 21.71 101.325 22.136 99.5727 22.136ZM99.1407 18.032C98.2407 18.032 97.4247 17.84 96.6927 17.456C95.9727 17.06 95.3907 16.514 94.9467 15.818C94.5147 15.11 94.2987 14.288 94.2987 13.352C94.2987 12.404 94.5147 11.582 94.9467 10.886C95.3907 10.178 95.9727 9.632 96.6927 9.248C97.4247 8.864 98.2407 8.672 99.1407 8.672C99.9567 8.672 100.677 8.84 101.301 9.176C101.925 9.5 102.411 10.01 102.759 10.706C103.107 11.39 103.281 12.272 103.281 13.352C103.281 14.42 103.107 15.302 102.759 15.998C102.411 16.682 101.925 17.192 101.301 17.528C100.677 17.864 99.9567 18.032 99.1407 18.032ZM99.6987 15.728C100.191 15.728 100.629 15.632 101.013 15.44C101.397 15.236 101.697 14.954 101.913 14.594C102.129 14.234 102.237 13.82 102.237 13.352C102.237 12.872 102.129 12.458 101.913 12.11C101.697 11.75 101.397 11.474 101.013 11.282C100.629 11.078 100.191 10.976 99.6987 10.976C99.2067 10.976 98.7687 11.078 98.3847 11.282C98.0007 11.474 97.6947 11.75 97.4667 12.11C97.2507 12.458 97.1427 12.872 97.1427 13.352C97.1427 13.82 97.2507 14.234 97.4667 14.594C97.6947 14.954 98.0007 15.236 98.3847 15.44C98.7687 15.632 99.2067 15.728 99.6987 15.728ZM112.428 18.644C111.324 18.644 110.352 18.428 109.512 17.996C108.684 17.564 108.042 16.976 107.586 16.232C107.13 15.476 106.902 14.618 106.902 13.658C106.902 12.686 107.124 11.828 107.568 11.084C108.024 10.328 108.642 9.74 109.422 9.32C110.202 8.888 111.084 8.672 112.068 8.672C113.016 8.672 113.868 8.876 114.624 9.284C115.392 9.68 115.998 10.256 116.442 11.012C116.886 11.756 117.108 12.65 117.108 13.694C117.108 13.802 117.102 13.928 117.09 14.072C117.078 14.204 117.066 14.33 117.054 14.45H109.188V12.812H115.578L114.498 13.298C114.498 12.794 114.396 12.356 114.192 11.984C113.988 11.612 113.706 11.324 113.346 11.12C112.986 10.904 112.566 10.796 112.086 10.796C111.606 10.796 111.18 10.904 110.808 11.12C110.448 11.324 110.166 11.618 109.962 12.002C109.758 12.374 109.656 12.818 109.656 13.334V13.766C109.656 14.294 109.77 14.762 109.998 15.17C110.238 15.566 110.568 15.872 110.988 16.088C111.42 16.292 111.924 16.394 112.5 16.394C113.016 16.394 113.466 16.316 113.85 16.16C114.246 16.004 114.606 15.77 114.93 15.458L116.424 17.078C115.98 17.582 115.422 17.972 114.75 18.248C114.078 18.512 113.304 18.644 112.428 18.644ZM118.978 18.5V5.144H121.786V18.5H118.978ZM129.198 18.644C128.094 18.644 127.122 18.428 126.282 17.996C125.454 17.564 124.812 16.976 124.356 16.232C123.9 15.476 123.672 14.618 123.672 13.658C123.672 12.686 123.894 11.828 124.338 11.084C124.794 10.328 125.412 9.74 126.192 9.32C126.972 8.888 127.854 8.672 128.838 8.672C129.786 8.672 130.638 8.876 131.394 9.284C132.162 9.68 132.768 10.256 133.212 11.012C133.656 11.756 133.878 12.65 133.878 13.694C133.878 13.802 133.872 13.928 133.86 14.072C133.848 14.204 133.836 14.33 133.824 14.45H125.958V12.812H132.348L131.268 13.298C131.268 12.794 131.166 12.356 130.962 11.984C130.758 11.612 130.476 11.324 130.116 11.12C129.756 10.904 129.336 10.796 128.856 10.796C128.376 10.796 127.95 10.904 127.578 11.12C127.218 11.324 126.936 11.618 126.732 12.002C126.528 12.374 126.426 12.818 126.426 13.334V13.766C126.426 14.294 126.54 14.762 126.768 15.17C127.008 15.566 127.338 15.872 127.758 16.088C128.19 16.292 128.694 16.394 129.27 16.394C129.786 16.394 130.236 16.316 130.62 16.16C131.016 16.004 131.376 15.77 131.7 15.458L133.194 17.078C132.75 17.582 132.192 17.972 131.52 18.248C130.848 18.512 130.074 18.644 129.198 18.644ZM139.005 18.644C138.177 18.644 137.379 18.548 136.611 18.356C135.855 18.152 135.255 17.9 134.811 17.6L135.747 15.584C136.191 15.86 136.713 16.088 137.313 16.268C137.925 16.436 138.525 16.52 139.113 16.52C139.761 16.52 140.217 16.442 140.481 16.286C140.757 16.13 140.895 15.914 140.895 15.638C140.895 15.41 140.787 15.242 140.571 15.134C140.367 15.014 140.091 14.924 139.743 14.864C139.395 14.804 139.011 14.744 138.591 14.684C138.183 14.624 137.769 14.546 137.349 14.45C136.929 14.342 136.545 14.186 136.197 13.982C135.849 13.778 135.567 13.502 135.351 13.154C135.147 12.806 135.045 12.356 135.045 11.804C135.045 11.192 135.219 10.652 135.567 10.184C135.927 9.716 136.443 9.35 137.115 9.086C137.787 8.81 138.591 8.672 139.527 8.672C140.187 8.672 140.859 8.744 141.543 8.888C142.227 9.032 142.797 9.242 143.253 9.518L142.317 11.516C141.849 11.24 141.375 11.054 140.895 10.958C140.427 10.85 139.971 10.796 139.527 10.796C138.903 10.796 138.447 10.88 138.159 11.048C137.871 11.216 137.727 11.432 137.727 11.696C137.727 11.936 137.829 12.116 138.033 12.236C138.249 12.356 138.531 12.452 138.879 12.524C139.227 12.596 139.605 12.662 140.013 12.722C140.433 12.77 140.853 12.848 141.273 12.956C141.693 13.064 142.071 13.22 142.407 13.424C142.755 13.616 143.037 13.886 143.253 14.234C143.469 14.57 143.577 15.014 143.577 15.566C143.577 16.166 143.397 16.7 143.037 17.168C142.677 17.624 142.155 17.984 141.471 18.248C140.799 18.512 139.977 18.644 139.005 18.644Z" fill="#845EC2"></path>
<path d="M47.83 29.5V22.5H49.45V29.5H47.83ZM51.0013 29.5V24.12H52.4913V25.61L52.2113 25.16C52.4046 24.8 52.6813 24.5233 53.0413 24.33C53.4013 24.1367 53.8113 24.04 54.2713 24.04C54.6979 24.04 55.0779 24.1267 55.4113 24.3C55.7513 24.4667 56.0179 24.7267 56.2113 25.08C56.4046 25.4267 56.5013 25.8733 56.5013 26.42V29.5H54.9413V26.66C54.9413 26.2267 54.8446 25.9067 54.6513 25.7C54.4646 25.4933 54.1979 25.39 53.8513 25.39C53.6046 25.39 53.3813 25.4433 53.1813 25.55C52.9879 25.65 52.8346 25.8067 52.7213 26.02C52.6146 26.2333 52.5613 26.5067 52.5613 26.84V29.5H51.0013ZM60.1153 29.58C59.482 29.58 58.9886 29.42 58.6353 29.1C58.282 28.7733 58.1053 28.29 58.1053 27.65V22.93H59.6653V27.63C59.6653 27.8567 59.7253 28.0333 59.8453 28.16C59.9653 28.28 60.1286 28.34 60.3353 28.34C60.582 28.34 60.792 28.2733 60.9653 28.14L61.3853 29.24C61.2253 29.3533 61.032 29.44 60.8053 29.5C60.5853 29.5533 60.3553 29.58 60.1153 29.58ZM57.2753 25.32V24.12H61.0053V25.32H57.2753ZM64.765 29.58C64.1517 29.58 63.6117 29.46 63.145 29.22C62.685 28.98 62.3283 28.6533 62.075 28.24C61.8217 27.82 61.695 27.3433 61.695 26.81C61.695 26.27 61.8183 25.7933 62.065 25.38C62.3183 24.96 62.6617 24.6333 63.095 24.4C63.5283 24.16 64.0183 24.04 64.565 24.04C65.0917 24.04 65.565 24.1533 65.985 24.38C66.4117 24.6 66.7483 24.92 66.995 25.34C67.2417 25.7533 67.365 26.25 67.365 26.83C67.365 26.89 67.3617 26.96 67.355 27.04C67.3483 27.1133 67.3417 27.1833 67.335 27.25H62.965V26.34H66.515L65.915 26.61C65.915 26.33 65.8583 26.0867 65.745 25.88C65.6317 25.6733 65.475 25.5133 65.275 25.4C65.075 25.28 64.8417 25.22 64.575 25.22C64.3083 25.22 64.0717 25.28 63.865 25.4C63.665 25.5133 63.5083 25.6767 63.395 25.89C63.2817 26.0967 63.225 26.3433 63.225 26.63V26.87C63.225 27.1633 63.2883 27.4233 63.415 27.65C63.5483 27.87 63.7317 28.04 63.965 28.16C64.205 28.2733 64.485 28.33 64.805 28.33C65.0917 28.33 65.3417 28.2867 65.555 28.2C65.775 28.1133 65.975 27.9833 66.155 27.81L66.985 28.71C66.7383 28.99 66.4283 29.2067 66.055 29.36C65.6817 29.5067 65.2517 29.58 64.765 29.58ZM68.4036 29.5V22.08H69.9636V29.5H68.4036ZM71.4114 29.5V22.08H72.9714V29.5H71.4114ZM74.4192 29.5V24.12H75.9792V29.5H74.4192ZM75.1992 23.37C74.9126 23.37 74.6792 23.2867 74.4992 23.12C74.3192 22.9533 74.2292 22.7467 74.2292 22.5C74.2292 22.2533 74.3192 22.0467 74.4992 21.88C74.6792 21.7133 74.9126 21.63 75.1992 21.63C75.4859 21.63 75.7192 21.71 75.8992 21.87C76.0792 22.0233 76.1692 22.2233 76.1692 22.47C76.1692 22.73 76.0792 22.9467 75.8992 23.12C75.7259 23.2867 75.4926 23.37 75.1992 23.37ZM79.957 31.52C79.4504 31.52 78.9604 31.4567 78.487 31.33C78.0204 31.21 77.6304 31.0267 77.317 30.78L77.937 29.66C78.1637 29.8467 78.4504 29.9933 78.797 30.1C79.1504 30.2133 79.497 30.27 79.837 30.27C80.3904 30.27 80.7904 30.1467 81.037 29.9C81.2904 29.6533 81.417 29.2867 81.417 28.8V27.99L81.517 26.64L81.497 25.28V24.12H82.977V28.6C82.977 29.6 82.717 30.3367 82.197 30.81C81.677 31.2833 80.9304 31.52 79.957 31.52ZM79.717 29.24C79.217 29.24 78.7637 29.1333 78.357 28.92C77.957 28.7 77.6337 28.3967 77.387 28.01C77.147 27.6167 77.027 27.16 77.027 26.64C77.027 26.1133 77.147 25.6567 77.387 25.27C77.6337 24.8767 77.957 24.5733 78.357 24.36C78.7637 24.1467 79.217 24.04 79.717 24.04C80.1704 24.04 80.5704 24.1333 80.917 24.32C81.2637 24.5 81.5337 24.7833 81.727 25.17C81.9204 25.55 82.017 26.04 82.017 26.64C82.017 27.2333 81.9204 27.7233 81.727 28.11C81.5337 28.49 81.2637 28.7733 80.917 28.96C80.5704 29.1467 80.1704 29.24 79.717 29.24ZM80.027 27.96C80.3004 27.96 80.5437 27.9067 80.757 27.8C80.9704 27.6867 81.137 27.53 81.257 27.33C81.377 27.13 81.437 26.9 81.437 26.64C81.437 26.3733 81.377 26.1433 81.257 25.95C81.137 25.75 80.9704 25.5967 80.757 25.49C80.5437 25.3767 80.3004 25.32 80.027 25.32C79.7537 25.32 79.5104 25.3767 79.297 25.49C79.0837 25.5967 78.9137 25.75 78.787 25.95C78.667 26.1433 78.607 26.3733 78.607 26.64C78.607 26.9 78.667 27.13 78.787 27.33C78.9137 27.53 79.0837 27.6867 79.297 27.8C79.5104 27.9067 79.7537 27.96 80.027 27.96ZM87.099 29.58C86.4857 29.58 85.9457 29.46 85.479 29.22C85.019 28.98 84.6623 28.6533 84.409 28.24C84.1557 27.82 84.029 27.3433 84.029 26.81C84.029 26.27 84.1523 25.7933 84.399 25.38C84.6523 24.96 84.9957 24.6333 85.429 24.4C85.8623 24.16 86.3523 24.04 86.899 24.04C87.4257 24.04 87.899 24.1533 88.319 24.38C88.7457 24.6 89.0823 24.92 89.329 25.34C89.5757 25.7533 89.699 26.25 89.699 26.83C89.699 26.89 89.6957 26.96 89.689 27.04C89.6823 27.1133 89.6757 27.1833 89.669 27.25H85.299V26.34H88.849L88.249 26.61C88.249 26.33 88.1923 26.0867 88.079 25.88C87.9657 25.6733 87.809 25.5133 87.609 25.4C87.409 25.28 87.1757 25.22 86.909 25.22C86.6423 25.22 86.4057 25.28 86.199 25.4C85.999 25.5133 85.8423 25.6767 85.729 25.89C85.6157 26.0967 85.559 26.3433 85.559 26.63V26.87C85.559 27.1633 85.6223 27.4233 85.749 27.65C85.8823 27.87 86.0657 28.04 86.299 28.16C86.539 28.2733 86.819 28.33 87.139 28.33C87.4257 28.33 87.6757 28.2867 87.889 28.2C88.109 28.1133 88.309 27.9833 88.489 27.81L89.319 28.71C89.0723 28.99 88.7623 29.2067 88.389 29.36C88.0157 29.5067 87.5857 29.58 87.099 29.58ZM90.7376 29.5V24.12H92.2276V25.61L91.9476 25.16C92.1409 24.8 92.4176 24.5233 92.7776 24.33C93.1376 24.1367 93.5476 24.04 94.0076 24.04C94.4342 24.04 94.8142 24.1267 95.1476 24.3C95.4876 24.4667 95.7542 24.7267 95.9476 25.08C96.1409 25.4267 96.2376 25.8733 96.2376 26.42V29.5H94.6776V26.66C94.6776 26.2267 94.5809 25.9067 94.3876 25.7C94.2009 25.4933 93.9342 25.39 93.5876 25.39C93.3409 25.39 93.1176 25.4433 92.9176 25.55C92.7242 25.65 92.5709 25.8067 92.4576 26.02C92.3509 26.2333 92.2976 26.5067 92.2976 26.84V29.5H90.7376ZM99.8516 29.58C99.2183 29.58 98.725 29.42 98.3716 29.1C98.0183 28.7733 97.8416 28.29 97.8416 27.65V22.93H99.4016V27.63C99.4016 27.8567 99.4616 28.0333 99.5816 28.16C99.7016 28.28 99.865 28.34 100.072 28.34C100.318 28.34 100.528 28.2733 100.702 28.14L101.122 29.24C100.962 29.3533 100.768 29.44 100.542 29.5C100.322 29.5533 100.092 29.58 99.8516 29.58ZM97.0116 25.32V24.12H100.742V25.32H97.0116ZM107.239 29.62C106.679 29.62 106.143 29.5467 105.629 29.4C105.116 29.2467 104.703 29.05 104.389 28.81L104.939 27.59C105.239 27.8033 105.593 27.98 105.999 28.12C106.413 28.2533 106.829 28.32 107.249 28.32C107.569 28.32 107.826 28.29 108.019 28.23C108.219 28.1633 108.366 28.0733 108.459 27.96C108.553 27.8467 108.599 27.7167 108.599 27.57C108.599 27.3833 108.526 27.2367 108.379 27.13C108.233 27.0167 108.039 26.9267 107.799 26.86C107.559 26.7867 107.293 26.72 106.999 26.66C106.713 26.5933 106.423 26.5133 106.129 26.42C105.843 26.3267 105.579 26.2067 105.339 26.06C105.099 25.9133 104.903 25.72 104.749 25.48C104.603 25.24 104.529 24.9333 104.529 24.56C104.529 24.16 104.636 23.7967 104.849 23.47C105.069 23.1367 105.396 22.8733 105.829 22.68C106.269 22.48 106.819 22.38 107.479 22.38C107.919 22.38 108.353 22.4333 108.779 22.54C109.206 22.64 109.583 22.7933 109.909 23L109.409 24.23C109.083 24.0433 108.756 23.9067 108.429 23.82C108.103 23.7267 107.783 23.68 107.469 23.68C107.156 23.68 106.899 23.7167 106.699 23.79C106.499 23.8633 106.356 23.96 106.269 24.08C106.183 24.1933 106.139 24.3267 106.139 24.48C106.139 24.66 106.213 24.8067 106.359 24.92C106.506 25.0267 106.699 25.1133 106.939 25.18C107.179 25.2467 107.443 25.3133 107.729 25.38C108.023 25.4467 108.313 25.5233 108.599 25.61C108.893 25.6967 109.159 25.8133 109.399 25.96C109.639 26.1067 109.833 26.3 109.979 26.54C110.133 26.78 110.209 27.0833 110.209 27.45C110.209 27.8433 110.099 28.2033 109.879 28.53C109.659 28.8567 109.329 29.12 108.889 29.32C108.456 29.52 107.906 29.62 107.239 29.62ZM111.886 31.52C111.606 31.52 111.33 31.4767 111.056 31.39C110.783 31.3033 110.56 31.1833 110.386 31.03L110.956 29.92C111.076 30.0267 111.213 30.11 111.366 30.17C111.526 30.23 111.683 30.26 111.836 30.26C112.056 30.26 112.23 30.2067 112.356 30.1C112.49 30 112.61 29.83 112.716 29.59L112.996 28.93L113.116 28.76L115.046 24.12H116.546L114.116 29.83C113.943 30.2633 113.743 30.6033 113.516 30.85C113.296 31.0967 113.05 31.27 112.776 31.37C112.51 31.47 112.213 31.52 111.886 31.52ZM112.806 29.71L110.406 24.12H112.016L113.876 28.62L112.806 29.71ZM118.915 29.58C118.455 29.58 118.011 29.5267 117.585 29.42C117.165 29.3067 116.831 29.1667 116.585 29L117.105 27.88C117.351 28.0333 117.641 28.16 117.975 28.26C118.315 28.3533 118.648 28.4 118.975 28.4C119.335 28.4 119.588 28.3567 119.735 28.27C119.888 28.1833 119.965 28.0633 119.965 27.91C119.965 27.7833 119.905 27.69 119.785 27.63C119.671 27.5633 119.518 27.5133 119.325 27.48C119.131 27.4467 118.918 27.4133 118.685 27.38C118.458 27.3467 118.228 27.3033 117.995 27.25C117.761 27.19 117.548 27.1033 117.355 26.99C117.161 26.8767 117.005 26.7233 116.885 26.53C116.771 26.3367 116.715 26.0867 116.715 25.78C116.715 25.44 116.811 25.14 117.005 24.88C117.205 24.62 117.491 24.4167 117.865 24.27C118.238 24.1167 118.685 24.04 119.205 24.04C119.571 24.04 119.945 24.08 120.325 24.16C120.705 24.24 121.021 24.3567 121.275 24.51L120.755 25.62C120.495 25.4667 120.231 25.3633 119.965 25.31C119.705 25.25 119.451 25.22 119.205 25.22C118.858 25.22 118.605 25.2667 118.445 25.36C118.285 25.4533 118.205 25.5733 118.205 25.72C118.205 25.8533 118.261 25.9533 118.375 26.02C118.495 26.0867 118.651 26.14 118.845 26.18C119.038 26.22 119.248 26.2567 119.475 26.29C119.708 26.3167 119.941 26.36 120.175 26.42C120.408 26.48 120.618 26.5667 120.805 26.68C120.998 26.7867 121.155 26.9367 121.275 27.13C121.395 27.3167 121.455 27.5633 121.455 27.87C121.455 28.2033 121.355 28.5 121.155 28.76C120.955 29.0133 120.665 29.2133 120.285 29.36C119.911 29.5067 119.455 29.58 118.915 29.58ZM124.617 29.58C123.984 29.58 123.491 29.42 123.137 29.1C122.784 28.7733 122.607 28.29 122.607 27.65V22.93H124.167V27.63C124.167 27.8567 124.227 28.0333 124.347 28.16C124.467 28.28 124.631 28.34 124.837 28.34C125.084 28.34 125.294 28.2733 125.467 28.14L125.887 29.24C125.727 29.3533 125.534 29.44 125.307 29.5C125.087 29.5533 124.857 29.58 124.617 29.58ZM121.777 25.32V24.12H125.507V25.32H121.777ZM129.267 29.58C128.654 29.58 128.114 29.46 127.647 29.22C127.187 28.98 126.83 28.6533 126.577 28.24C126.324 27.82 126.197 27.3433 126.197 26.81C126.197 26.27 126.32 25.7933 126.567 25.38C126.82 24.96 127.164 24.6333 127.597 24.4C128.03 24.16 128.52 24.04 129.067 24.04C129.594 24.04 130.067 24.1533 130.487 24.38C130.914 24.6 131.25 24.92 131.497 25.34C131.744 25.7533 131.867 26.25 131.867 26.83C131.867 26.89 131.864 26.96 131.857 27.04C131.85 27.1133 131.844 27.1833 131.837 27.25H127.467V26.34H131.017L130.417 26.61C130.417 26.33 130.36 26.0867 130.247 25.88C130.134 25.6733 129.977 25.5133 129.777 25.4C129.577 25.28 129.344 25.22 129.077 25.22C128.81 25.22 128.574 25.28 128.367 25.4C128.167 25.5133 128.01 25.6767 127.897 25.89C127.784 26.0967 127.727 26.3433 127.727 26.63V26.87C127.727 27.1633 127.79 27.4233 127.917 27.65C128.05 27.87 128.234 28.04 128.467 28.16C128.707 28.2733 128.987 28.33 129.307 28.33C129.594 28.33 129.844 28.2867 130.057 28.2C130.277 28.1133 130.477 27.9833 130.657 27.81L131.487 28.71C131.24 28.99 130.93 29.2067 130.557 29.36C130.184 29.5067 129.754 29.58 129.267 29.58ZM132.906 29.5V24.12H134.396V25.59L134.116 25.16C134.302 24.7933 134.566 24.5167 134.906 24.33C135.252 24.1367 135.646 24.04 136.086 24.04C136.579 24.04 137.009 24.1667 137.376 24.42C137.749 24.6667 137.996 25.0467 138.116 25.56L137.566 25.41C137.746 24.99 138.032 24.6567 138.426 24.41C138.826 24.1633 139.282 24.04 139.796 24.04C140.222 24.04 140.599 24.1267 140.926 24.3C141.259 24.4667 141.519 24.7267 141.706 25.08C141.899 25.4267 141.996 25.8733 141.996 26.42V29.5H140.436V26.66C140.436 26.2267 140.346 25.9067 140.166 25.7C139.986 25.4933 139.732 25.39 139.406 25.39C139.179 25.39 138.976 25.4433 138.796 25.55C138.616 25.65 138.476 25.8033 138.376 26.01C138.276 26.2167 138.226 26.48 138.226 26.8V29.5H136.666V26.66C136.666 26.2267 136.576 25.9067 136.396 25.7C136.222 25.4933 135.972 25.39 135.646 25.39C135.419 25.39 135.216 25.4433 135.036 25.55C134.856 25.65 134.716 25.8033 134.616 26.01C134.516 26.2167 134.466 26.48 134.466 26.8V29.5H132.906Z" fill="#00C9A7"></path>
<defs>
<linearGradient id="paint0_linear_8025_81422" x1="0" y1="0" x2="35" y2="35" gradientUnits="userSpaceOnUse">
<stop offset="0.370192" stop-color="#845EC2"></stop>
<stop offset="1" stop-color="#00C9A7"></stop>
</linearGradient>
<clipPath id="clip0_8025_81422">
<rect width="35" height="35" fill="white"></rect>
</clipPath>
</defs>
</svg>