<svg width="35" height="35" viewBox="0 0 35 35" fill="none" xmlns="http://www.w3.org/2000/svg">
<g clip-path="url(#clip0_6069_119380)">
<path d="M35 17.5C35 7.83502 27.165 0 17.5 0C7.83502 0 0 7.83502 0 17.5C0 27.165 7.83502 35 17.5 35C27.165 35 35 27.165 35 17.5Z" fill="url(#paint0_linear_6069_119380)"></path>
<path d="M8.5 20.0657V17.5959C8.5 16.4472 8.5 15.8728 8.64805 15.3439C8.7792 14.8754 8.99473 14.4347 9.28405 14.0435C9.61067 13.6019 10.064 13.2493 10.9708 12.544L13.5708 10.5218C14.9761 9.4288 15.6787 8.8823 16.4546 8.67222C17.1392 8.48686 17.8608 8.48686 18.5454 8.67222C19.3213 8.8823 20.0239 9.42881 21.4292 10.5218L24.0292 12.544C24.936 13.2493 25.3893 13.6019 25.7159 14.0435C26.0053 14.4347 26.2208 14.8754 26.3519 15.3439C26.5 15.8728 26.5 16.4472 26.5 17.5959V20.0657C26.5 22.3059 26.5 23.4261 26.064 24.2817C25.6805 25.0343 25.0686 25.6463 24.316 26.0298C23.4603 26.4657 22.3402 26.4657 20.1 26.4657H14.9C12.6598 26.4657 11.5397 26.4657 10.684 26.0298C9.93139 25.6463 9.31947 25.0343 8.93597 24.2817C8.5 23.4261 8.5 22.3059 8.5 20.0657Z" stroke="white" stroke-width="2" stroke-linecap="round" stroke-linejoin="round"></path>
<path d="M21.476 13.1167C21.4342 12.9365 21.339 12.7758 21.2046 12.6587C21.0702 12.5416 20.9039 12.4745 20.7308 12.4674C20.5576 12.4604 20.3871 12.5138 20.2447 12.6196C20.1024 12.7254 19.996 12.8779 19.9416 13.0541L17.3928 21.2425L15.0312 15.5482C14.9669 15.3946 14.8619 15.2646 14.7292 15.1745C14.5966 15.0843 14.4421 15.0379 14.285 15.041C14.1279 15.0441 13.9752 15.0966 13.8457 15.1919C13.7162 15.2873 13.6158 15.4213 13.5568 15.5773L12.1584 19.3244H9.5V21.0385H12.1584C12.8168 21.0385 13.4 20.6151 13.6432 19.9612L14.3384 18.0996L16.768 23.9577C16.8976 24.2688 17.1848 24.4668 17.5 24.4668L17.5384 24.4659C17.6996 24.4577 17.8546 24.3974 17.9832 24.2929C18.1117 24.1884 18.2077 24.0447 18.2584 23.8806L20.5896 16.3881L21.3728 19.7401C21.4587 20.1113 21.6583 20.4409 21.9396 20.6763C22.2209 20.9117 22.5678 21.0392 22.9248 21.0385H25.5V19.3244H22.924L21.476 13.1167Z" fill="white"></path>
</g>
<defs>
<linearGradient id="paint0_linear_6069_119380" x1="0" y1="0" x2="35" y2="35" gradientUnits="userSpaceOnUse">
<stop offset="0.370192" stop-color="#845EC2"></stop>
<stop offset="1" stop-color="#00C9A7"></stop>
</linearGradient>
<clipPath id="clip0_6069_119380">
<rect width="35" height="35" fill="white"></rect>
</clipPath>
</defs>
</svg>